<svg version="1.2" xmlns="http://www.w3.org/2000/svg" viewBox="0 0 350 55" width="350" height="55">
	<title>새 프로젝트</title>
	<style>
		.s0 { fill: #000000 } 
		.s1 { fill: #d03636 } 
	</style>
	<path id="nuber Eats" fill-rule="evenodd" class="s0" d="m31.1 31.8c0-7.2-4-11-10-11-6 0-10 3.8-10 11v22.2h-8.2v-39.7h8.2v4.6c2.7-3.3 7.1-5.2 11.8-5.2 9.3 0 16.3 5.8 16.3 16.9v23.4h-8.1zm50.2 22.2h-8.2v-4.8c-2.6 3.4-7.1 5.4-11.8 5.4-9.3 0-16.3-5.9-16.3-17v-23.3h8.1v22.1c0 7.3 4 11 9.9 11 6.1 0 10.1-3.7 10.1-11v-22.1h8.2zm28.5-40.3c10.5 0 18.6 8 18.6 20.3 0 12.2-8.2 20.7-18.6 20.7-6.6 0-11.3-3-13.8-6.5v5.8h-8.3v-53.3h8.3v19.5c2.5-3.6 7.5-6.5 13.8-6.5zm-1.8 7.1c-6.1 0-12 4.8-12 13.3 0 8.6 5.9 13.4 12 13.4 6.2 0 12.1-4.9 12.1-13.5 0-8.6-5.9-13.2-12.1-13.2zm41.3 33.9c-11.4 0-19.8-8.1-19.8-20.6 0-12.4 8.1-20.4 19.8-20.4 11.3 0 19.3 7.8 19.3 19.5 0 1.4-0.1 2.7-0.3 4h-30.3c0.6 6.6 5.3 10.5 11.3 10.5 5 0 7.9-2.4 9.4-5.5h8.8c-2.2 6.9-8.5 12.5-18.2 12.5zm-11.2-24.1h21.9c-0.1-6.1-4.9-10-11.1-10-5.5 0-10 3.7-10.8 10zm42.5 23.4h-8.3v-39.7h8.3v5.8c2.3-4 6.2-6.4 11.8-6.4v8.5h-2.1c-6 0-9.7 2.5-9.7 10.9z"/>
	<path id="nuber Eats" fill-rule="evenodd" class="s1" d="m236.6 13.3h-18.6v10.2h16.5v9.5h-16.5v11.1h18.6v9.9h-30.9v-50.5h30.9zm20.6-0.1c6 0 10.3 2.7 12.4 6.2v-5.6h12.3v40.1h-12.3v-5.7c-2.2 3.6-6.5 6.3-12.4 6.3-9.8 0-17.7-8.1-17.7-20.7 0-12.7 7.9-20.6 17.7-20.6zm3.6 10.7c-4.6 0-8.8 3.5-8.8 9.9 0 6.4 4.2 10 8.8 10 4.7 0 8.8-3.5 8.8-10 0-6.4-4.1-9.9-8.8-9.9zm29.3 0.1h-4.9v-10.2h4.9v-9.8h12.3v9.8h8.1v10.2h-8.1v16.1c0 2.4 1.1 3.4 3.8 3.4h4.4v10.4h-6.3c-8.3 0-14.2-3.5-14.2-13.9zm41 30.5c-10.7 0-17.9-6-18.5-13.8h12.2c0.3 2.9 2.8 4.7 6.2 4.7 3.1 0 4.8-1.4 4.8-3.2 0-6.5-21.9-1.8-21.9-16.6 0-6.8 5.8-12.4 16.3-12.4 10.4 0 16.2 5.7 17 13.6h-11.4c-0.4-2.7-2.5-4.5-5.9-4.5-2.9 0-4.5 1.2-4.5 3.1 0 6.4 21.8 1.9 22 16.9 0 6.9-6.2 12.2-16.3 12.2z"/>
</svg>